<svg id="Capa_1" data-name="Capa 1" xmlns="http://www.w3.org/2000/svg" viewBox="0 0 704.6 792.81"><defs><style>.cls-1{fill:#d90d2c;}</style></defs><path class="cls-1" d="M336.57,93.94a155.51,155.51,0,0,0-23.24-1.81q-30.06,0-53.14,10.84a110.94,110.94,0,0,0-38.68,29.57,123.83,123.83,0,0,0-9.72,13.68A447.18,447.18,0,0,1,280,117.33c-1.35-1.75-2.69-4.18-2.46-5.55,2.45-14.2,9.55-5.9,16.6-4.39-2.77,7.66-10.75-4.16-10.75,4.91,0,1.16.77,2.46,1.2,3.64a398.42,398.42,0,0,1,72.78-15.79A77.09,77.09,0,0,0,336.57,93.94Z" transform="translate(-148.77 -92.13)"/><path class="cls-1" d="M331.83,335.18c1-.32,2.09-.55,3.1-.89a102.07,102.07,0,0,0,13.87-5.84l6.46-75.71c-.54.16-1.05.28-1.57.4a20.77,20.77,0,0,1-1.71,8.93c-1.06-2.58-3-4.65-4.33-6.84-1.19.58-2.19,1.19-3.44,1.77a123.66,123.66,0,0,1-12.49,4.93,109.24,109.24,0,0,1-13,3.45,64.3,64.3,0,0,1-12.66,1.31,52.63,52.63,0,0,1-14.78-2,32,32,0,0,1-11.66-6.08A27.36,27.36,0,0,1,272,248.3a36.94,36.94,0,0,1-2.72-14.79q0-13.31,5-23.16a48,48,0,0,1,13.48-16.43,58,58,0,0,1,19.46-9.77,82.22,82.22,0,0,1,23-3.19c-3.1-3.27-5.76-6.12-8.3-8.77,7.21-.12,11.25,2,10.16,8.84,2.61.05,5.22.14,7.83.41a59.3,59.3,0,0,1,9.54,1.8l3.82-28.79Q271,166.29,191.42,218.61a182.91,182.91,0,0,0-1.61,23.77,101.68,101.68,0,0,0,7.63,39.51c.05.11.12.2.17.31,4.69-3.77,8.69-9.66,23.13-2.1-14.7-3.27-17.35,1.77-16.47,9.81a5.29,5.29,0,0,1-.62,3.7,91.88,91.88,0,0,0,46.1,41.25,98,98,0,0,0,38.94,7.72,121.92,121.92,0,0,0,12.23-.8,62.2,62.2,0,0,0,6.31-5.86c2.4,1.63,2.32,3.19,1.63,4.76,3.57-.58,7.14-1.11,10.71-2,2.94-.7,5.73-1.64,8.58-2.48-.55-2.31-1.12-4.72-1.81-7.61A17.6,17.6,0,0,1,331.83,335.18Zm-35-153.31H277.69C284.35,174.33,290.13,174.2,296.8,181.87ZM263.86,264.2c1.82,4.78,2.33,9.56-2.39,14.22C263.23,274.14,253,267.6,263.86,264.2Zm-10.56-4.84c4-.12,7.54-.12,7,4.41-.12,1.26-2.26,3.14-3.52,3.14-3.64.26-5.4-2.64-6.79-5.54A29.51,29.51,0,0,1,253.3,259.36Zm-23.88-54.68c-4.78,3.77-4.65,3.77-4.91.5-.5-7.54,4.28-6.54,12.07-5.27A76,76,0,0,0,229.42,204.68Zm11.18-2.89c.13-3.15-.25-7,4.28-6.53,4.27.37,2,3,.75,5-1,2,4.9,5.28-.88,6.41C241.86,207.19,240.6,204.81,240.6,201.79Zm14.59,97.27c-.69,2.53-2.75,4.85-4.28,7.44-1.76-4.4-3.89-7.78-8.61-8.79,2.33-1.52,4.4-3.53,6.92-4.53a4.94,4.94,0,0,1,3.63-.29c.12-1.63.4-3.51.7-5.62,2.14,3.4,3.27,5.54,4.78,7.29,3.77,4.79,3.9,4.66.63,4.9A8.15,8.15,0,0,1,255.19,299.06Zm8.67,38.75c-1.57-2.27-4.21-4.27-4.59-6.8-.88-4.89,2-7.66,8.42-7.53-2.76,12.57,9.37-5.91,9.62,4.89S262,326,263.86,337.81Zm33.75-46.26c4.09-4.59,8.11-9.12,13.77-7.86C312.38,295.69,304.09,292.42,297.61,291.55Z" transform="translate(-148.77 -92.13)"/><path class="cls-1" d="M331.83,335.18c1-.32,2.09-.55,3.1-.89a102.07,102.07,0,0,0,13.87-5.84l6.46-75.71c-.54.16-1.05.28-1.57.4a20.77,20.77,0,0,1-1.71,8.93c-1.06-2.58-3-4.65-4.33-6.84-1.19.58-2.19,1.19-3.44,1.77a123.66,123.66,0,0,1-12.49,4.93,109.24,109.24,0,0,1-13,3.45,64.3,64.3,0,0,1-12.66,1.31,52.63,52.63,0,0,1-14.78-2,32,32,0,0,1-11.66-6.08A27.36,27.36,0,0,1,272,248.3a36.94,36.94,0,0,1-2.72-14.79q0-13.31,5-23.16a48,48,0,0,1,13.48-16.43,58,58,0,0,1,19.46-9.77,82.22,82.22,0,0,1,23-3.19c-3.1-3.27-5.76-6.12-8.3-8.77,7.21-.12,11.25,2,10.16,8.84,2.61.05,5.22.14,7.83.41a59.3,59.3,0,0,1,9.54,1.8l3.82-28.79Q271,166.29,191.42,218.61a182.91,182.91,0,0,0-1.61,23.77,101.68,101.68,0,0,0,7.63,39.51c.05.11.12.2.17.31,4.69-3.77,8.69-9.66,23.13-2.1-14.7-3.27-17.35,1.77-16.47,9.81a5.29,5.29,0,0,1-.62,3.7,91.88,91.88,0,0,0,46.1,41.25,98,98,0,0,0,38.94,7.72,121.92,121.92,0,0,0,12.23-.8,62.2,62.2,0,0,0,6.31-5.86c2.4,1.63,2.32,3.19,1.63,4.76,3.57-.58,7.14-1.11,10.71-2,2.94-.7,5.73-1.64,8.58-2.48-.55-2.31-1.12-4.72-1.81-7.61A17.6,17.6,0,0,1,331.83,335.18Zm-35-153.31H277.69C284.35,174.33,290.13,174.2,296.8,181.87ZM263.86,264.2c1.82,4.78,2.33,9.56-2.39,14.22C263.23,274.14,253,267.6,263.86,264.2Zm-10.56-4.84c4-.12,7.54-.12,7,4.41-.12,1.26-2.26,3.14-3.52,3.14-3.64.26-5.4-2.64-6.79-5.54A29.51,29.51,0,0,1,253.3,259.36Zm-23.88-54.68c-4.78,3.77-4.65,3.77-4.91.5-.5-7.54,4.28-6.54,12.07-5.27A76,76,0,0,0,229.42,204.68Zm11.18-2.89c.13-3.15-.25-7,4.28-6.53,4.27.37,2,3,.75,5-1,2,4.9,5.28-.88,6.41C241.86,207.19,240.6,204.81,240.6,201.79Zm14.59,97.27c-.69,2.53-2.75,4.85-4.28,7.44-1.76-4.4-3.89-7.78-8.61-8.79,2.33-1.52,4.4-3.53,6.92-4.53a4.94,4.94,0,0,1,3.63-.29c.12-1.63.4-3.51.7-5.62,2.14,3.4,3.27,5.54,4.78,7.29,3.77,4.79,3.9,4.66.63,4.9A8.15,8.15,0,0,1,255.19,299.06Zm8.67,38.75c-1.57-2.27-4.21-4.27-4.59-6.8-.88-4.89,2-7.66,8.42-7.53-2.76,12.57,9.37-5.91,9.62,4.89S262,326,263.86,337.81Zm33.75-46.26c4.09-4.59,8.11-9.12,13.77-7.86C312.38,295.69,304.09,292.42,297.61,291.55Z" transform="translate(-148.77 -92.13)"/><path class="cls-1" d="M331.83,335.18c1-.32,2.09-.55,3.1-.89a102.07,102.07,0,0,0,13.87-5.84l6.46-75.71c-.54.16-1.05.28-1.57.4a20.77,20.77,0,0,1-1.71,8.93c-1.06-2.58-3-4.65-4.33-6.84-1.19.58-2.19,1.19-3.44,1.77a123.66,123.66,0,0,1-12.49,4.93,109.24,109.24,0,0,1-13,3.45,64.3,64.3,0,0,1-12.66,1.31,52.63,52.63,0,0,1-14.78-2,32,32,0,0,1-11.66-6.08A27.36,27.36,0,0,1,272,248.3a36.94,36.94,0,0,1-2.72-14.79q0-13.31,5-23.16a48,48,0,0,1,13.48-16.43,58,58,0,0,1,19.46-9.77,82.22,82.22,0,0,1,23-3.19c-3.1-3.27-5.76-6.12-8.3-8.77,7.21-.12,11.25,2,10.16,8.84,2.61.05,5.22.14,7.83.41a59.3,59.3,0,0,1,9.54,1.8l3.82-28.79Q271,166.29,191.42,218.61a182.91,182.91,0,0,0-1.61,23.77,101.68,101.68,0,0,0,7.63,39.51c.05.11.12.2.17.31,4.69-3.77,8.69-9.66,23.13-2.1-14.7-3.27-17.35,1.77-16.47,9.81a5.29,5.29,0,0,1-.62,3.7,91.88,91.88,0,0,0,46.1,41.25,98,98,0,0,0,38.94,7.72,121.92,121.92,0,0,0,12.23-.8,62.2,62.2,0,0,0,6.31-5.86c2.4,1.63,2.32,3.19,1.63,4.76,3.57-.58,7.14-1.11,10.71-2,2.94-.7,5.73-1.64,8.58-2.48-.55-2.31-1.12-4.72-1.81-7.61A17.6,17.6,0,0,1,331.83,335.18Zm-35-153.31H277.69C284.35,174.33,290.13,174.2,296.8,181.87ZM263.86,264.2c1.82,4.78,2.33,9.56-2.39,14.22C263.23,274.14,253,267.6,263.86,264.2Zm-10.56-4.84c4-.12,7.54-.12,7,4.41-.12,1.26-2.26,3.14-3.52,3.14-3.64.26-5.4-2.64-6.79-5.54A29.51,29.51,0,0,1,253.3,259.36Zm-23.88-54.68c-4.78,3.77-4.65,3.77-4.91.5-.5-7.54,4.28-6.54,12.07-5.27A76,76,0,0,0,229.42,204.68Zm11.18-2.89c.13-3.15-.25-7,4.28-6.53,4.27.37,2,3,.75,5-1,2,4.9,5.28-.88,6.41C241.86,207.19,240.6,204.81,240.6,201.79Zm14.59,97.27c-.69,2.53-2.75,4.85-4.28,7.44-1.76-4.4-3.89-7.78-8.61-8.79,2.33-1.52,4.4-3.53,6.92-4.53a4.94,4.94,0,0,1,3.63-.29c.12-1.63.4-3.51.7-5.62,2.14,3.4,3.27,5.54,4.78,7.29,3.77,4.79,3.9,4.66.63,4.9A8.15,8.15,0,0,1,255.19,299.06Zm8.67,38.75c-1.57-2.27-4.21-4.27-4.59-6.8-.88-4.89,2-7.66,8.42-7.53-2.76,12.57,9.37-5.91,9.62,4.89S262,326,263.86,337.81Zm33.75-46.26c4.09-4.59,8.11-9.12,13.77-7.86C312.38,295.69,304.09,292.42,297.61,291.55Z" transform="translate(-148.77 -92.13)"/><path class="cls-1" d="M331.83,335.18c1-.32,2.09-.55,3.1-.89a102.07,102.07,0,0,0,13.87-5.84l6.46-75.71c-.54.16-1.05.28-1.57.4a20.77,20.77,0,0,1-1.71,8.93c-1.06-2.58-3-4.65-4.33-6.84-1.19.58-2.19,1.19-3.44,1.77a123.66,123.66,0,0,1-12.49,4.93,109.24,109.24,0,0,1-13,3.45,64.3,64.3,0,0,1-12.66,1.31,52.63,52.63,0,0,1-14.78-2,32,32,0,0,1-11.66-6.08A27.36,27.36,0,0,1,272,248.3a36.94,36.94,0,0,1-2.72-14.79q0-13.31,5-23.16a48,48,0,0,1,13.48-16.43,58,58,0,0,1,19.46-9.77,82.22,82.22,0,0,1,23-3.19c-3.1-3.27-5.76-6.12-8.3-8.77,7.21-.12,11.25,2,10.16,8.84,2.61.05,5.22.14,7.83.41a59.3,59.3,0,0,1,9.54,1.8l3.82-28.79Q271,166.29,191.42,218.61a182.91,182.91,0,0,0-1.61,23.77,101.68,101.68,0,0,0,7.63,39.51c.05.11.12.2.17.31,4.69-3.77,8.69-9.66,23.13-2.1-14.7-3.27-17.35,1.77-16.47,9.81a5.29,5.29,0,0,1-.62,3.7,91.88,91.88,0,0,0,46.1,41.25,98,98,0,0,0,38.94,7.72,121.92,121.92,0,0,0,12.23-.8,62.2,62.2,0,0,0,6.31-5.86c2.4,1.63,2.32,3.19,1.63,4.76,3.57-.58,7.14-1.11,10.71-2,2.94-.7,5.73-1.64,8.58-2.48-.55-2.31-1.12-4.72-1.81-7.61A17.6,17.6,0,0,1,331.83,335.18Zm-35-153.31H277.69C284.35,174.33,290.13,174.2,296.8,181.87ZM263.86,264.2c1.82,4.78,2.33,9.56-2.39,14.22C263.23,274.14,253,267.6,263.86,264.2Zm-10.56-4.84c4-.12,7.54-.12,7,4.41-.12,1.26-2.26,3.14-3.52,3.14-3.64.26-5.4-2.64-6.79-5.54A29.51,29.51,0,0,1,253.3,259.36Zm-23.88-54.68c-4.78,3.77-4.65,3.77-4.91.5-.5-7.54,4.28-6.54,12.07-5.27A76,76,0,0,0,229.42,204.68Zm11.18-2.89c.13-3.15-.25-7,4.28-6.53,4.27.37,2,3,.75,5-1,2,4.9,5.28-.88,6.41C241.86,207.19,240.6,204.81,240.6,201.79Zm14.59,97.27c-.69,2.53-2.75,4.85-4.28,7.44-1.76-4.4-3.89-7.78-8.61-8.79,2.33-1.52,4.4-3.53,6.92-4.53a4.94,4.94,0,0,1,3.63-.29c.12-1.63.4-3.51.7-5.62,2.14,3.4,3.27,5.54,4.78,7.29,3.77,4.79,3.9,4.66.63,4.9A8.15,8.15,0,0,1,255.19,299.06Zm8.67,38.75c-1.57-2.27-4.21-4.27-4.59-6.8-.88-4.89,2-7.66,8.42-7.53-2.76,12.57,9.37-5.91,9.62,4.89S262,326,263.86,337.81Zm33.75-46.26c4.09-4.59,8.11-9.12,13.77-7.86C312.38,295.69,304.09,292.42,297.61,291.55Z" transform="translate(-148.77 -92.13)"/><path class="cls-1" d="M331.83,335.18c1-.32,2.09-.55,3.1-.89a102.07,102.07,0,0,0,13.87-5.84l6.46-75.71c-.54.16-1.05.28-1.57.4a20.77,20.77,0,0,1-1.71,8.93c-1.06-2.58-3-4.65-4.33-6.84-1.19.58-2.19,1.19-3.44,1.77a123.66,123.66,0,0,1-12.49,4.93,109.24,109.24,0,0,1-13,3.45,64.3,64.3,0,0,1-12.66,1.31,52.63,52.63,0,0,1-14.78-2,32,32,0,0,1-11.66-6.08A27.36,27.36,0,0,1,272,248.3a36.94,36.94,0,0,1-2.72-14.79q0-13.31,5-23.16a48,48,0,0,1,13.48-16.43,58,58,0,0,1,19.46-9.77,82.22,82.22,0,0,1,23-3.19c-3.1-3.27-5.76-6.12-8.3-8.77,7.21-.12,11.25,2,10.16,8.84,2.61.05,5.22.14,7.83.41a59.3,59.3,0,0,1,9.54,1.8l3.82-28.79Q271,166.29,191.42,218.61a182.91,182.91,0,0,0-1.61,23.77,101.68,101.68,0,0,0,7.63,39.51c.05.11.12.2.17.31,4.69-3.77,8.69-9.66,23.13-2.1-14.7-3.27-17.35,1.77-16.47,9.81a5.29,5.29,0,0,1-.62,3.7,91.88,91.88,0,0,0,46.1,41.25,98,98,0,0,0,38.94,7.72,121.92,121.92,0,0,0,12.23-.8,62.2,62.2,0,0,0,6.31-5.86c2.4,1.63,2.32,3.19,1.63,4.76,3.57-.58,7.14-1.11,10.71-2,2.94-.7,5.73-1.64,8.58-2.48-.55-2.31-1.12-4.72-1.81-7.61A17.6,17.6,0,0,1,331.83,335.18Zm-35-153.31H277.69C284.35,174.33,290.13,174.2,296.8,181.87ZM263.86,264.2c1.82,4.78,2.33,9.56-2.39,14.22C263.23,274.14,253,267.6,263.86,264.2Zm-10.56-4.84c4-.12,7.54-.12,7,4.41-.12,1.26-2.26,3.14-3.52,3.14-3.64.26-5.4-2.64-6.79-5.54A29.51,29.51,0,0,1,253.3,259.36Zm-23.88-54.68c-4.78,3.77-4.65,3.77-4.91.5-.5-7.54,4.28-6.54,12.07-5.27A76,76,0,0,0,229.42,204.68Zm11.18-2.89c.13-3.15-.25-7,4.28-6.53,4.27.37,2,3,.75,5-1,2,4.9,5.28-.88,6.41C241.86,207.19,240.6,204.81,240.6,201.79Zm14.59,97.27c-.69,2.53-2.75,4.85-4.28,7.44-1.76-4.4-3.89-7.78-8.61-8.79,2.33-1.52,4.4-3.53,6.92-4.53a4.94,4.94,0,0,1,3.63-.29c.12-1.63.4-3.51.7-5.62,2.14,3.4,3.27,5.54,4.78,7.29,3.77,4.79,3.9,4.66.63,4.9A8.15,8.15,0,0,1,255.19,299.06Zm8.67,38.75c-1.57-2.27-4.21-4.27-4.59-6.8-.88-4.89,2-7.66,8.42-7.53-2.76,12.57,9.37-5.91,9.62,4.89S262,326,263.86,337.81Zm33.75-46.26c4.09-4.59,8.11-9.12,13.77-7.86C312.38,295.69,304.09,292.42,297.61,291.55Z" transform="translate(-148.77 -92.13)"/><path class="cls-1" d="M331.83,335.18c1-.32,2.09-.55,3.1-.89a102.07,102.07,0,0,0,13.87-5.84l6.46-75.71c-.54.16-1.05.28-1.57.4a20.77,20.77,0,0,1-1.71,8.93c-1.06-2.58-3-4.65-4.33-6.84-1.19.58-2.19,1.19-3.44,1.77a123.66,123.66,0,0,1-12.49,4.93,109.24,109.24,0,0,1-13,3.45,64.3,64.3,0,0,1-12.66,1.31,52.63,52.63,0,0,1-14.78-2,32,32,0,0,1-11.66-6.08A27.36,27.36,0,0,1,272,248.3a36.94,36.94,0,0,1-2.72-14.79q0-13.31,5-23.16a48,48,0,0,1,13.48-16.43,58,58,0,0,1,19.46-9.77,82.22,82.22,0,0,1,23-3.19c-3.1-3.27-5.76-6.12-8.3-8.77,7.21-.12,11.25,2,10.16,8.84,2.61.05,5.22.14,7.83.41a59.3,59.3,0,0,1,9.54,1.8l3.82-28.79Q271,166.29,191.42,218.61a182.91,182.91,0,0,0-1.61,23.77,101.68,101.68,0,0,0,7.63,39.51c.05.11.12.2.17.31,4.69-3.77,8.69-9.66,23.13-2.1-14.7-3.27-17.35,1.77-16.47,9.81a5.29,5.29,0,0,1-.62,3.7,91.88,91.88,0,0,0,46.1,41.25,98,98,0,0,0,38.94,7.72,121.92,121.92,0,0,0,12.23-.8,62.2,62.2,0,0,0,6.31-5.86c2.4,1.63,2.32,3.19,1.63,4.76,3.57-.58,7.14-1.11,10.71-2,2.94-.7,5.73-1.64,8.58-2.48-.55-2.31-1.12-4.72-1.81-7.61A17.6,17.6,0,0,1,331.83,335.18Zm-35-153.31H277.69C284.35,174.33,290.13,174.2,296.8,181.87ZM263.86,264.2c1.82,4.78,2.33,9.56-2.39,14.22C263.23,274.14,253,267.6,263.86,264.2Zm-10.56-4.84c4-.12,7.54-.12,7,4.41-.12,1.26-2.26,3.14-3.52,3.14-3.64.26-5.4-2.64-6.79-5.54A29.51,29.51,0,0,1,253.3,259.36Zm-23.88-54.68c-4.78,3.77-4.65,3.77-4.91.5-.5-7.54,4.28-6.54,12.07-5.27A76,76,0,0,0,229.42,204.68Zm11.18-2.89c.13-3.15-.25-7,4.28-6.53,4.27.37,2,3,.75,5-1,2,4.9,5.28-.88,6.41C241.86,207.19,240.6,204.81,240.6,201.79Zm14.59,97.27c-.69,2.53-2.75,4.85-4.28,7.44-1.76-4.4-3.89-7.78-8.61-8.79,2.33-1.52,4.4-3.53,6.92-4.53a4.94,4.94,0,0,1,3.63-.29c.12-1.63.4-3.51.7-5.62,2.14,3.4,3.27,5.54,4.78,7.29,3.77,4.79,3.9,4.66.63,4.9A8.15,8.15,0,0,1,255.19,299.06Zm8.67,38.75c-1.57-2.27-4.21-4.27-4.59-6.8-.88-4.89,2-7.66,8.42-7.53-2.76,12.57,9.37-5.91,9.62,4.89S262,326,263.86,337.81Zm33.75-46.26c4.09-4.59,8.11-9.12,13.77-7.86C312.38,295.69,304.09,292.42,297.61,291.55Z" transform="translate(-148.77 -92.13)"/><path class="cls-1" d="M426.29,330.54l-.45-.21c0-.13-.08-.27-.13-.4-4.73,1-8.65,1-8.17-6,.12-2.77,2.26-6.41,3.65-5,2.55,2.8,3.23,7.22,4.52,11,.18,0,.34-.05.51-.08l.12-.15c0,.05,0,.08,0,.13h0c0,.25,0,.44,0,.71l2.39,1.08h19.23l.74-2.29c.15.8.3,1.55.45,2.29h5.48l1.35-42.36a21.6,21.6,0,0,1-4.32.34,11.15,11.15,0,0,0,4.45-4.24l.82-25.69h37.77l.6,68.38c.11-.06.24-.18.35-.23,2.27-1,6.41,2.64,9.81,4.4a10.29,10.29,0,0,0-2.2,3l28.36-1.36a15.32,15.32,0,0,1,1.18-2.73,21.52,21.52,0,0,1,.9,2.63l43.79-2.1-2.2-98.07a3.91,3.91,0,0,1-1.32,0c-3.9-.76-6.53-3.52-7.42-8.43.51-2.77,3-2.88,5.54-3.14a8.08,8.08,0,0,1,3,.16l-.14-6.21c-1.52-.62-3.31-2.49-5.08-3.57,2.1-2,3.59-3.91,4.88-5.08l-.59-26.69A438.91,438.91,0,0,0,497.14,151L497,210.36l7.67,1.93c-2.87.27-5.38.8-7.68,1.15l0,8.79H466.1c.37.12.75.07,1.1.37,5.53,4.91,2.13,11.69.75,18.47-2.14-5.39-13.08-5-8.55-14.32a9.15,9.15,0,0,1,4.63-4.52h-3.54l1.82-43.45c-1.28-.94-2.52-1.93-3.79-2.82,1.21-1.49,2.65-3.15,4.11-4.85l1.16-27.69a346.39,346.39,0,0,0-77.57-5.32l0,1.27c6.45,5.27,13.12,10.39,8.1,20.88A31.49,31.49,0,0,1,386,145.77L381.66,306.6a21.34,21.34,0,0,1,4.26,1.23,13.14,13.14,0,0,0-4.34,2L381,331.62h45.29C426.3,331.22,426.24,331,426.29,330.54ZM544,318c-.63.76-3.89-.13-5.28-1.13-7.41-5.54.63-9.18,1.89-13.7C540.23,308.59,550,311.6,544,318Zm20.81,7.29c-.57.76-4.53.13-4.91-.75-1.19-2.68-.53-4.72.71-6.85-.39,0-.85-.3-1.4-1.06-2-2.77-8.8.11-6.78-6,.5-1.51,2.76-2.51,4.52-4.15a65.44,65.44,0,0,1,5,8.16,2,2,0,0,1,0,.86,25.16,25.16,0,0,0,3.42-6.64C566.82,317,568.07,321.53,564.81,325.3Zm5-112.13c-5,6.16-10,5.16-15.08.63C559.84,213.17,564.87,214.55,569.77,213.17Zm-17,13.45c.63-.88,4.4-1.38,5.53-.51,5.51,4.36-.63,7.79-2.1,10.12C555.81,233.85,550.12,231,552.8,226.62Zm.63,56.7c.63-.26,2.7,3.39,4.09,5.28a78.14,78.14,0,0,1-8.55,4.14c-.32.13-1.7-2.38-3.08-4.4C548.65,286.33,550.79,284.2,553.43,283.32Zm-8.3-88.06a6.4,6.4,0,0,1-1.76,3c-5.46,4-7.91-2-12.25-3.64C536.21,193.12,540.8,191.86,545.13,195.26Zm-14.58-23.33c-.75,8.18-1.13,12.45-1.63,16.73-2.77-1.25-5.66-2.51-8.42-3.78C523,181.74,525.4,178.47,530.55,171.93Zm-15.84,86.25c-3.39,5.52,6.29,9.55,1.39,15.33C509.81,269,507.42,264.09,514.71,258.18Zm-12.44-99.57c0-1.25,2-3.64,2.13-3.51,2.9,1.37,5.41,3.27,5.54,7.78-1,.64-2.39,2.27-3.78,2.4C501.39,165.41,502,161.64,502.27,158.61Zm-13.33,75.68c2.77-.5,5.66.76,4.65,3.77-1,2.64-3.77,4.65-5.78,6.91-.75-1.5-1.38-3.14-1.63-3.64C485.8,237.56,485.93,234.92,488.94,234.29Zm-37.33,11.94c1.76-.12,5.28-1,4.78,2.77-1.89,2.89-3.53,5.28-5.29,7.55-1.13-2.27-2.39-4.54-3.39-6.8C445.57,245,449.85,246.23,451.61,246.23Zm-26.28-56.31c3.27-.38,4,1.88,4,4.64-1,3-3.27,4-5.66,2.4-2-1.26-3.39-3.53-5.16-5.41A33.68,33.68,0,0,1,425.33,189.92Zm-9.68,55.31-4.9-8.3c7-2.27.76-10.31,6-13.33.25,3.78,11.69-.37,5.65,7.92C428.6,240.2,413.14,238.32,415.65,245.23Z" transform="translate(-148.77 -92.13)"/><path class="cls-1" d="M572.19,97.39l-74.91-2,0,13.79A456.5,456.5,0,0,1,573,135.26Zm-58.86,4.9c-.88-.63-2-2.88-1.76-3,4.15-3.71,8.8-2.07,14.08-.89C521.38,100.29,518.86,105.94,513.33,102.29Z" transform="translate(-148.77 -92.13)"/><path class="cls-1" d="M813.63,317.49,799,267a812.94,812.94,0,0,1-90.41-26.39H691.75l1.22-5.71q-16.58-6.24-33.51-13.42a2.46,2.46,0,0,1-.5,2.18c-4.14,3.64-11.18-2.64-15.14,4,.92-6.07,3.52-9.05,7.23-9.94-8.11-3.52-16.21-7-24.43-10.89l-33.75,113,83.78,8.2,8.21-37.11h37.45L732.16,328Zm-18-5.89c-4.28,6-8.68,8.68-14.07,5.78-1.52-.74-1.39-4.52-1.89-6.91C784.29,310.84,789,311.23,795.61,311.6Zm-30.86-21.87c2.07,3.27,3.21,5.41,4.71,7.29,3.77,4.64,3.84,4.64.57,4.9C762.55,302.42,763.62,297.65,764.75,289.73Zm-15.52-12c5.27-.5,7.15,2.07,6.41,7-.26,1.89-2.64,6.54-3.08,2-.82-8-8.87,1.39-8.68-4.9C744.19,278.54,746.39,278,749.23,277.72Zm1.44,41.67c.37.5-1.94,3-3,4.53-3.6-2.64-7.24-5.41-11.14-8.42C743.25,312,747.4,314.87,750.67,319.39ZM633.19,266.53c6.1,3.91,20-.5,13.14,21.31C645.07,274.08,635.77,274.32,633.19,266.53Zm19.93,47c-.88,2.14-3.58,3.4-5,4.66-5.91-.76-4.84-4.66-4.84-7.54.06-4,2.45-4.53,4.53-1.89C649.41,310.84,655.38,308.2,653.12,313.48ZM690.27,284c-6,1.1-15.61,8.58-14.6-5.85a4.14,4.14,0,0,0-.49-.19,4.61,4.61,0,0,1-.15-.59c-2.81.34-5.66,7.23-7.64.47-1-3.27-3.65-11,3.52-11.06,6.82,0,3,6.69,4.12,10.59a1.84,1.84,0,0,1,.66,0c0,.33,0,.51,0,.82,2.93,1,5.5,5.56,9.19.44,1.13-1.63,3.52-4.9,5.66-1.76C691.65,278.42,690.89,283.82,690.27,284Z" transform="translate(-148.77 -92.13)"/><path class="cls-1" d="M739.3,96.92c.58,5.77-2.85,10.45-9.5,18,2.85-7.49.55-13.05,1.86-17.63l-25.07,1.26a18.84,18.84,0,0,0-2.06,1c0-.31,0-.61-.08-.92L658.24,101l-19.83,66.4c14.94,7.13,29.61,13.43,44.15,19.39,5.37,1.14,11.11,4.1,15.25-1.08a20.31,20.31,0,0,1-4.25,5.53c2.65,1,5.36,2.23,8,3.24l2.35-11,2.82,12.9a784.29,784.29,0,0,0,79.09,25.14L749.57,96.4Zm-74.18,19.26c2.33,7.42,4.09,13.21,6.42,20.62C660.91,131.77,662.67,125,665.12,116.18Zm13.71,56.89c-2,6.79-8.17-1.25-11.82,1.5,2.51-4.64,5.91-7.54,11.06-6.91C678.57,167.79,679.2,171.43,678.83,173.07Zm23.38-23.51c-1-1.57-1.81-2.85-2.52-4,0,.29.1.48.13.79-4.52-6-11.32-2.51-13.08-14.2,3.09,3.2,6.84,3.15,9.56,5.39l.5-.05C704.34,136.87,703.34,141.64,702.21,149.56Zm23,50c7.66-1,14.13-4.53,19.91-12.19C744.89,206.7,733.77,200.28,725.22,199.53Z" transform="translate(-148.77 -92.13)"/><path class="cls-1" d="M237.59,404.73c.1.08.2.12.31.2-.15-.07-.26,0-.39-.1a116.6,116.6,0,0,0-11.11,16.31,120.68,120.68,0,0,0-11,27.68,118.53,118.53,0,0,0-3.87,30.31,116.17,116.17,0,0,0,1,15,699.34,699.34,0,0,0,86.85,12.7c-.39-.48-.87-.86-1.24-1.37a43.05,43.05,0,0,1-6.5-13.14,51.21,51.21,0,0,1-2.21-14.87,42.82,42.82,0,0,1,2.54-15,36,36,0,0,1,7.23-12,33.06,33.06,0,0,1,11.25-8,36.41,36.41,0,0,1,14.79-2.88A32,32,0,0,1,340,443a31.52,31.52,0,0,1,10.67,8.78,39.56,39.56,0,0,1,6.49,12.65,49.34,49.34,0,0,1,2.22,14.71,44.29,44.29,0,0,1-2.55,15,39,39,0,0,1-7.22,12.57,31.53,31.53,0,0,1-2.53,2.38A636.29,636.29,0,0,0,435.64,504c.26-1.1.37-2.24.6-3.34a23.2,23.2,0,0,0-2.94-1.73l3.22.22a124.39,124.39,0,0,0,2.68-24.6c0-2-.17-4-.25-6-4.07-.12-8.64-3-17.09-4.05,8-1,12.82-1.61,16.83-2.11a116,116,0,0,0-8-34.72A108.17,108.17,0,0,0,423,412.69v.11c-.11,2.51-.37,5.15-3.77,5.52s-4-2.27-4.14-4.9c-.13-3.17-.05-6.63,4.21-6.48a95.19,95.19,0,0,0-12.45-14.54,103.93,103.93,0,0,0-36.55-22.17q-21.27-7.73-46.73-7.73a106.24,106.24,0,0,0-30.39,4.28,108.35,108.35,0,0,0-26.94,12.07,112.63,112.63,0,0,0-22.58,18.56C241.47,399.73,239.56,402.26,237.59,404.73Zm-3.66,67c-.25,1.13-2.83,2.64-4.14,2.38-4.47-.63-3.47-4.52-3.21-7.41.06-.88-.38-4.41,2.26-2.89C232.24,465.91,234.87,468.05,233.93,471.69ZM231,434c-.68.38-2.2-.76-3.27-1.13,1.46-4.65,2.84-9.29,4.34-14.2C242.11,426.3,237.84,430.46,231,434Zm173.86,41.62c-1.31-10.94-1.94-16.09-2.57-21.12,2,0,5.27-.63,5.71.13C410.93,460,406.22,464.39,404.83,475.59Zm13.78-6.67c.57,1,1.31,2,2,2.95.1,0,.19-.11.29-.12,1.76-.12,3.77,2.89,7.67,6.41-2.38,1.38-4.78,3.78-6.67,3.39A6.08,6.08,0,0,1,419,480c-.66.67-1.33,1.34-1.9,2-1.76-1.89-4.85-3.53-5-5.41S415,472.82,418.61,468.92ZM415,432.47c-11.62,6.15-14.52-6.54-21.93-9.05C402.38,421.65,408.86,426.19,415,432.47Zm-20.17-42.12a75,75,0,0,1,7.73,5.4c-1.69,1.9-3.39,3.91-5.66,6.54-2.13-3.27-4.08-5.78-5.34-8.54C391.31,393.12,394.4,390.1,394.84,390.35Zm-6.54-3.45c4.41,4.14,2.51,9.31,1.26,14.83-2.76-4.52-7-7.92-6.16-13.33C383.53,387.53,387.67,386.27,388.3,386.9Zm-13.58,13.69c-.37,4.28,10.07-1.37,5.54,6-1.38,2.14-.13,7.55-4.28,6.41-3.4-.87-6-4.64-5.28-9.3C371.21,401.35,370.83,398.59,374.72,400.59ZM373,458.93a37.29,37.29,0,0,1,3.77.88c-2.89,3.27-5.79,6.54-10.18,11.56C366.93,463.45,365.17,458,373,458.93Zm-27.16-84.22c10.57-2,5.4,11.31,12.82,13.19-6.41-1.76-13.82-1.13-15.7-9.3C342.67,377.46,344.56,375,345.81,374.71Zm-26.26,9.82a5.45,5.45,0,0,1,2.75,1.8,19.58,19.58,0,0,0-2.75-1.8c-5.43-1.53-10.75,8.57-16.35,3.18C308.35,381.32,313.84,380.9,319.55,384.53Zm-21.76,4.31c-6.79,2.64-9.17-3.51-15.27-5.15C290.62,380.42,295,382.19,297.79,388.84Zm-37.15,26.71c1.71,6.21,3.42,12.54,5.12,18.75.26,0,.39.1.66.11,0,.19.07.32.1.5h10c.88-.85,1.61-1.12,2.07,0h-2.07c-3,2.9-7.84,12.8-10,0h-.6l-.16-.61C250.85,433.09,261.39,422.11,260.64,415.55Z" transform="translate(-148.77 -92.13)"/><path class="cls-1" d="M402.08,561.91a115.61,115.61,0,0,0,12.53-13.76,675.43,675.43,0,0,1-89.38,2,9,9,0,0,1-6.26,4.46c-1.07.26-3.64-1.64-3.89-2.88a8.2,8.2,0,0,1,0-2.14c-19.19-1.11-39.06-3-59.72-5.88-3,3.7-6.19,7.49-14.78,7.39,3.42-2.66,5.46-6.15,7.88-8.49-6.38-1-12.76-1.93-19.27-3.1a113.09,113.09,0,0,0,15.73,19.63,109,109,0,0,0,23,17.33A117.27,117.27,0,0,0,295,587.53a114.39,114.39,0,0,0,30.24,4,122.62,122.62,0,0,0,12.73-.66,119.61,119.61,0,0,0,12.56-2l14.12,38.77,10.59-6.83c-.66-.77-.88-1.43.14-1.84v1.75l49.4-31.85Zm-96,14.05c-.11.76-1.37,1.26-2.13,1.89-1.14-4.53-7.42-7.3-4.15-14C304.83,566.78,307.35,570.31,306.08,576Zm18.73-5.15c-6.15-3.52-8.41-8.18-4.77-14.83C326.21,559.49,328.47,564.27,324.81,570.81Zm50.8,5.78c6.78-2.64,9.29,3.53,15.33,5.16C382.77,585,378.38,583.26,375.61,576.59Z" transform="translate(-148.77 -92.13)"/><path class="cls-1" d="M477.79,557.23a87.94,87.94,0,0,0,16.42,24.31,72.57,72.57,0,0,0,14.38,11.23,9.26,9.26,0,0,1,7.74-1.34c.76.12,1.27,1.38,1.89,2.14a12.17,12.17,0,0,0-4.09,2.26c1.42.73,2.66,1.65,4.15,2.31q14,6.15,33.1,6.15a76.61,76.61,0,0,0,29.56-5.5A84.32,84.32,0,0,0,605,583.68a109.49,109.49,0,0,0,19-22.51c1.65-2.55,3.1-5.27,4.62-7.93-2.79-1.45-5.46-3.74-9.51-4.8,5.86-1.37,9.68-1.44,12.19.2,2.6-4.88,5-9.91,7.24-15.14,0,0,0-.09,0-.13-.14,0-.23,0-.38-.09.18,0,.29-.08.45-.09A227.54,227.54,0,0,0,649,502.7c2.42-9.24,4.37-18.36,6-27.41-26.38,10.24-42.73,19.18-45.32,20.64-2.22,1.22-14.51,7.83-35.64,16.05a114.39,114.39,0,0,1-3.9,13A41.9,41.9,0,0,1,563.53,537q-3.78,4.51-8.54,4.52a8.94,8.94,0,0,1-7.14-3.79,33.22,33.22,0,0,1-5.18-9.68c-.53-1.47-1-3.06-1.42-4.65-15.51,4.84-33.55,9.63-53.73,13.85-.29,1.63-.68,3.29-1.1,5.05a17.71,17.71,0,0,0-2.87-4.26c-4,.81-8,1.65-12.17,2.41A148.91,148.91,0,0,0,477.79,557.23Zm117.49-9.18c-4.77,6.41-10.93,2.14-16.34,6.8-4.9,4.14-1-5.67-2.76-8.68C582,546.8,587.74,547.3,595.28,548.05Zm-31,17.11c-4.15-5-7.17-8.68-10.81-13.08C564,549.81,565.49,555.22,564.23,565.16Zm-.37,8.55c-8.18,3.25-12.45,1.5-15.34-5C555.31,565.9,557.69,572.19,563.86,573.71ZM537.05,581c0-4.76.05-9.92,7.19-14.75-.74,8.3-1.25,14.34-1.75,20.25-1.67-.23-3.34-.37-5-.56-1.66.85-3.93,1.3-7.31,1.06C532.88,584.65,535.08,582.74,537.05,581Zm-25.87-8.34c-3.51,6.16-8.17,8.43-14.83,4.79C499.87,571.31,504.64,569.05,511.18,572.69Z" transform="translate(-148.77 -92.13)"/><path class="cls-1" d="M583.79,368.09c1.49,1.46,2.05,3.44,1.81,6.13a14.74,14.74,0,0,1,9.31,2.5c-3.5,1-6.8,1.88-10.11,1.7-.5,1.79-1.19,3.86-2.07,6.18.13,3,.33,5.91.43,8.87.26,7.92.37,15.87.39,23.84,4.07-3.24,7.38-8.47,15.88-5.4-4,2.9-6.79,5.53-9,9.55-2.45,4.45-4.8,4.62-6.87,2.9,0,1.55-.06,3.19-.1,5.16-.12,4.71-.35,10.13-.74,16.26-.37,5.82-.84,12.12-1.4,18.81,5.36-2.46,8.39-4.07,8.65-4.21.46-.26,9.14-5,24-11.52a7,7,0,0,1-.79-.37,23.84,23.84,0,0,1,4.88-1.42c11.21-4.81,25.38-10.42,42.21-16,.32-5.95.54-11.69.54-16.95q0-23.32-2-46Zm25.82,24c5.66,1.89,6.8-9.18,13.2-4.15.75.63,1.27,2.77.88,3.4C620.05,397.21,614.77,393.94,609.61,392.05Z" transform="translate(-148.77 -92.13)"/><path class="cls-1" d="M463.67,419.09A457.34,457.34,0,0,0,461.36,465q0,15,1.4,31.12c.1,1.23.32,2.42.44,3.63a554.42,554.42,0,0,0,73.09-17.95c0-.44,0-1,0-1.36a427.23,427.23,0,0,1,3.2-52.32c1.29-10.47,3-20.85,4.61-31.26l-.71-.28.79-.27c1-6.67,1.81-13.37,3-20l-32.38-1.25a15.11,15.11,0,0,1-1.87,4.08,5.5,5.5,0,0,1-1.81,2.73,20.13,20.13,0,0,0,1.81-2.73,5.73,5.73,0,0,0-.66-4.18l-42-1.61Q466,396.19,463.67,419.09ZM465,474.64c-6.16-11.69,6.53-14.59,9-22C475.8,462,471.26,468.48,465,474.64Zm38.65-23.51c.63-.24,3.64,2.9,3.4,3.27a79.38,79.38,0,0,1-5.41,7.79c-1.89-1.75-3.9-3.39-6.54-5.65C498.36,454.4,500.87,452.39,503.64,451.13Zm-28.47-38.28c1.19,2.52-.13,4.79-4.28,5.16-2.51.13-3.27-2.26-3.14-4.9.13-2-1.13-5.65,2.33-5.28C472,408,474.23,410.71,475.17,412.85Z" transform="translate(-148.77 -92.13)"/><path class="cls-1" d="M776.06,365.46l-87.38,4.6v52.27a560.68,560.68,0,0,1,84.14-16.69Zm-83.48,48.41c-4.27-.51-2-3.16-.76-5,1.14-2.13-5-5.4.76-6.54,3-.5,4.28,1.9,4.28,4.78C696.73,410.34,697.1,414.24,692.58,413.87Zm15.71,2.18c-1.51-1.62-3-3.25-4.52-4.89,3.27-4.4,5-10.18,12.06-10.94.89-.13,2.77,2.27,2.64,2.51C715.21,407.26,711.82,411.54,708.29,416.05Zm32.06-13.13a22.07,22.07,0,0,1-1.86-4.15c-1.1,1.18-2.66,2.25-3.8,3.46-1.5-2.38-5.78-2.88-4.78-6.78a74,74,0,0,1,3-7.68c1.85,2.36,3.38,4,4.56,5.35a32.2,32.2,0,0,1,2.85-13.57ZM729.41,375c-.5-.63,0-2.9.76-3.4,5.78-4.39,8.29,3.27,13,4.4C738.46,377.53,733.31,380.42,729.41,375Z" transform="translate(-148.77 -92.13)"/><path class="cls-1" d="M749.05,589.65l9-.47,0-.23-3.12-1C753,588.54,750.92,589,749.05,589.65Z" transform="translate(-148.77 -92.13)"/><path class="cls-1" d="M748.9,488.85c7.56-1.31,12.08-2.13,17.45-3.08l3.25-40.18c-14.6,2-28.47,4.59-41.56,7.53v11.77c-3.51-3.5-4.94-6.93-4.51-10.72-12.4,2.91-24.11,6.09-34.85,9.42v19.66a11.56,11.56,0,0,0,.88,1.76c2,2.76,3.12,4.9-.88,5.26v92c.67-1.55,1.81-2.72,4.78-2.76,1,0,3.27,2.88,3,3.77-1.09,3.42-2.66,6.59-7.81,6.87v2.66l50.39-2.62a11.37,11.37,0,0,1,5.57-5.45l-.27-.09.88-.18c4.08-1.86,8.89-2.75,12.07-6.23A3.88,3.88,0,0,1,759,577l.37-4.58c-1.21-2.8-2.49-6.06-5.18-9,2.21.56,4,1.14,5.76,1.75l6.12-75.77C761.28,491.52,756.58,490.44,748.9,488.85Zm-45.63,15.9c1.38,8.67,4.27,14.45-5.66,19.61C699.74,517.19,701,512.55,703.27,504.75Zm-7.92,66.43c-2.13-.5-2.13-2.13-.63-4,3.39-4,7.29-4.78,12.56-1C701.63,564.77,700.5,572.57,695.35,571.18Zm9.18,18.11c-1.39-.88-2-3.15-2.9-4.66l13-1.13C711.56,587.16,709.05,591.93,704.53,589.29ZM733.69,480c-1-8.67-1.64-14.83-2.38-21,2,0,3.88-.12,5.9-.12C735.7,465,742.36,471.37,733.69,480Z" transform="translate(-148.77 -92.13)"/><path class="cls-1" d="M172.11,659.32a60.67,60.67,0,0,1-1.2-8.07l-16.23.78-1.05,41.71a469.86,469.86,0,0,1,108,6l-24.82-51.65-61.65,3A12.82,12.82,0,0,1,172.11,659.32Zm-12.44,28c-9-8.54-2.64-11.57,5-13.82C161.55,677.55,165.58,684.59,159.67,687.35Zm33.32-7c-5.8-3-11.58-5.91-17.36-8.92C188.46,661.27,189.09,673.84,193,680.38Z" transform="translate(-148.77 -92.13)"/><path class="cls-1" d="M150.48,817.68l-.12,4.62c2.71.06,4.26,1.55,3.91,4.4-.32,2.6-2,3.64-4.1,3.17L148.77,885h46.92a9.31,9.31,0,0,1,6.22-6.45c4.27-1.52,5,1.88,5.4,5.39a7.33,7.33,0,0,1-.09,1.06h15.46l7.23-121.56,15,39c.15-.53.3-1,.47-1.59.78,2.93,1.44,5.55,2.13,8.34l7.8,20.21a21.85,21.85,0,0,1,7.41,1.61c-1.42,2.18-2.63,4.77-4.49,6l17.65,45.76,14.33-1.31c-1.63-1.57-2.92-3.93-3.47-8.5,3.38,4.32,7.61,4,10.43,7.86l48.87-4.48c-1.27-2.14-2.64-4.26-4.74-5.39,6.57-1.27,10.35,1.14,13.35,4.61l7.31-.67,5.16-97.28c-2.35-1.23-4.7-2.29-7-3.46a9.54,9.54,0,0,1-.18,2.33c-.38,1.76-1.64,4.53-2.51,4.53a8.25,8.25,0,0,1-2.44-.32c-1.49,4.49,4.83,10.66-3.21,13.07-1.77.63-5.67-.13-5.67-.38-.35-6.24,5.1-8.74,8.54-12.79-4.39-1.58-3.41-7.39-5-11.58-9.34-4.32-18.66-8.09-27.95-11.55a59.61,59.61,0,0,0,.39,7.89c-1.55-5-13.34-4.5-9.83-11.4-4.4-1.52-8.78-2.84-13.16-4.17a10.86,10.86,0,0,1-2.37.72c-.35.28-.71.55-1.05.84l.06-.66A15.71,15.71,0,0,0,294,751l-.36,15.37-5.41-11.25c-3.92,1.83-5.25-5.28-4-7,.14-.18.3-.27.44-.43l-1.23-2.57a415.35,415.35,0,0,0-130.82-12l-.2,7.72c.86.94,1.68,1.87,2.21,2.35.28,3-.85,3.77-2.37,4l-1.73,68.06a46.41,46.41,0,0,1,2.84,5.52A14.84,14.84,0,0,0,150.48,817.68Zm161.93,7.71c3.14,3.77,6.15,7.54,9.3,11.36-2.26,1.14-5.16,3.78-6.79,3.16C308.63,837.64,313.41,830.41,312.41,825.39Zm-15-48.16c1.88,2.14,5,4.16,4.9,5.66-.63,3.27-2.77,6.41-4.27,9.56-1.52-2.51-3-4.91-4.53-7.29C290.91,780.63,296.32,780.5,297.45,777.23Zm-3.53,44.89c1.89,2.38,5.41,4.9,5.28,7.28-.25,7.24-3.89.26-5.65.88-2.51,1-5.15,5-5.91-2.51C289.4,826.13,291.67,824.13,293.92,822.12Zm10.29,34.67c.3-.06.6-.1.9-.17-.09.33-.09.58-.16.9,3.5,4.86,12.15,3.5,13.74,11.8-10,1.47-16.17-.47-13.74-11.8a3.26,3.26,0,0,1-.34-.4c-.13-.13-.27-.2-.4-.33-6.22,1.4-12.44,2.15-20.85-1.92C292.33,854.12,298.66,851.52,304.21,856.79Zm-17.7-76.92c-1.14,2.9-2.77,5.66-4.15,8.55-1.89-1.51-5.66-3.76-5.41-4.39,1-2.64,3.27-4.78,5.41-7.42C284.24,778,286.63,779.37,286.51,779.87Zm-2.14-11.69c.87.63,2,2.9,1.76,3-4.14,3.77-8.8,2.13-14.08.87C276.45,770.32,278.83,764.54,284.37,768.18Zm-77.82,53.05c7.92,2.9,2.27,11.31,7,15.28C200.65,836,206.05,828.14,206.55,821.23Zm.89-81.09c1-1.37-2-6.28,3.14-6.52,10.93-.89-3.9,11.93,6.29,12.32,1.5.11-.13,2.88-2.14,3.14C208.56,750.08,206.43,747.07,207.44,740.14Zm.25,48a3.45,3.45,0,0,1,6-1.63c4.57,5.05-2.52,7.36-3.26,11.29.14,0,.21,0,.37,0s.15.24.23.36c5.51-1.53,9.62-.19,10.58,6.18.26,1.13-2.51,2.77-3.9,4.15-2.17-3.4-4.48-6.92-6.68-10.33-.26.07-.47.06-.74.14a3.34,3.34,0,0,1,.14-.52C199.68,797.89,207.06,791.52,207.69,788.17Zm-11.06,53.24c2.51,2.14,1.63,4.41-3,4-3.65-1.13-2.39-4.78-2.26-7.54,0-3.14,1.88-4.71,4.89-3.65C201.53,836.14,193.36,838.65,196.63,841.41Zm5.78-106.22c-3.77,5.78-8.17,8.67-15.22,3.51C193.61,741.73,194.24,731.16,202.41,735.19Zm-28.78,36.33c-2.64,7.54,7.78,11.68,3.51,21.49C172.36,786.23,167.72,779.93,173.63,771.52Zm-4.91,38.9c.63-1.63,2.64-2.76,4.28-4.28.73,1.42,1.53,2.71,2.27,4,.17,0,.32,0,.49,0,1.88.13,5.53-1.14,5.28,2.39-.19,1.41-1.79,3-3.48,4.12-.27.76-1,.93-1.82.94-1.83.84-3.44.31-4.35-1.72C169.37,814.73,167.43,813.45,168.72,810.42Z" transform="translate(-148.77 -92.13)"/><path class="cls-1" d="M236.23,612.93a7.75,7.75,0,0,1,2.06-2.54,4.75,4.75,0,0,1,3.12-1.07,6.48,6.48,0,0,1,5,2.63,39.16,39.16,0,0,1,4.35,6.57q2.13,3.94,4.68,8.54a46.35,46.35,0,0,0,6.08,8.54,29.79,29.79,0,0,0,8.63,6.58,26.68,26.68,0,0,0,12.31,2.62,44,44,0,0,0,31.46-13,45.22,45.22,0,0,0,12.89-32,65.32,65.32,0,0,0-1.72-15,111.53,111.53,0,0,0-4.52-14.53l-40.74,6.57a64.63,64.63,0,0,1,4.28,8.45,24.68,24.68,0,0,1,2,9.62,11.29,11.29,0,0,1-1.81,5.91,5.67,5.67,0,0,1-5.09,3,4.84,4.84,0,0,1-4.27-2.8,66.82,66.82,0,0,1-3.45-6.9q-1.82-4.1-4-9a31.62,31.62,0,0,0-6.16-9,33.14,33.14,0,0,0-9.86-6.9c-3.93-1.85-8.92-2.78-14.93-2.78A40.61,40.61,0,0,0,218.65,570a37,37,0,0,0-12.81,10.1,40.76,40.76,0,0,0-3.21,4.95c1.8,2.85,2.59,6.19,4.55,10.18a19.35,19.35,0,0,1-7.08-5.13A46.73,46.73,0,0,0,198,595.2a58.63,58.63,0,0,0-1.32,6.06,11,11,0,0,1,3.18-3.16c4.27-2,5,2.58,6.65,4.59.76.81,2,5.52-2.63,4-2.56-.87-4.92-2.48-7.53-3.91a67.76,67.76,0,0,0-1,11.12,116.65,116.65,0,0,0,.82,13.71A87.37,87.37,0,0,0,199,641.52l40.09-3.29a73.32,73.32,0,0,1-3-9.12,37.58,37.58,0,0,1-1.24-9.61,18.46,18.46,0,0,1,.34-3.28A12.33,12.33,0,0,1,236.23,612.93Zm74.91-8.1c7.3.31,3.53,7.67,9.44,10.36-8.93,2-11.07-2.19-12.45-6.59C307.87,607.71,310.14,604.83,311.14,604.83Zm-19,8.29c3.38-2.2,12.69-3.71,11.43,7,1.76,4.84,11.69,6.48,6,14.09-1.77,2.46-4.53.37-6-2-10.81,2-9.18-7.11-7.54-11C298.69,615.14,285.24,617.58,292.17,613.12Zm-38.59-24c-5.16,5.21-8.31,8.42-13.34,13.39C239.5,591.81,243,588.87,253.58,589.11Zm-36.71-4.71c3.64-.32,7,.37,6,4.9-.38,2.2-2.89,5.35-4.9,5.65-4.28.57-1.76-5.27-4.65-6.47C211.46,584.27,214.47,584.59,216.87,584.4Zm-13.46,30.35c5.54-14.26,13.2-10.36,23.77-1.88C217.62,612.87,209.83,607.78,203.41,614.75Z" transform="translate(-148.77 -92.13)"/><path class="cls-1" d="M295,707a428,428,0,0,1,74.43,26.62L373.8,652l-77.52,2.63Zm54.7-17.66c-4.41-.25-8.68-.63-12.95-1,.88-1.5,1.39-3.77,2.77-4.64C344.21,680.88,346.6,685.91,349.74,689.3Zm-14.2-25.95c.74-1,2.38-3,4.14-.13,3.4,5.91,2.9,11.31-2.76,17.6C337.67,674,330.76,669.5,335.54,663.35Zm-15.09,27.78c-1.26-6,4.15-8.81,6-15.59C328.62,685.22,328,690,320.45,691.13Zm2.64-24.33c-3.77,5.78-8.17,8.67-15.22,3.52C314.28,673.34,314.92,662.78,323.09,666.8Z" transform="translate(-148.77 -92.13)"/><path class="cls-1" d="M598.78,852.91c-.59.87-1.65,1.33-3.65,1-2.53-.38-5.16,0-5.67-4.29.91-3.31,2.92-6.12,6.3-7.09l-8.62-29.76c-1.79-1.27-4-6.61-6-9.78.91-.53,1.79-1,2.69-1.53l-25-86.29c-1.22,4.69-2.37,9-3.72,14-4.77-7.34-8.58-13.34,3.29-15.52l-17.75-61.27-33,1.66c-.75.65-1.53,1.21-2.28,1.91-1.46,1.39-3.21.27-4.89-1.55L449.34,657,432.4,713.69c1.18.64,2.15,1.49,1.82,1.57a6.5,6.5,0,0,0-2.68,1.27l-13.08,43.78A480.31,480.31,0,0,1,477,804c.59-1,1.74-1.39,4.51.15,2.38,1.39,7.54-5.27,7.28,3a11.73,11.73,0,0,1-1.59,5.8c.52.46,1,.88,1.55,1.36,37.38,34.41,75,51.68,114,52.39ZM470.12,749.78q-1.85,5.52-3.59,10.68c-1.33-5.59-3.5-11.09.16-14.71,0,0,0,0,0-.07-.25-.63,2.39-3.39,4-3.77,9.3-1.77,4.52,7.41,13.2,10.57C477,752.48,472.89,751.66,470.12,749.78Zm12.73,46.8L495,739.41l12.49,57.17ZM502,820.16c5.4,3,12.07-12.19,18,1.26C513.67,819.66,508.51,827.83,502,820.16Zm13.71-49.71c-3-1-6.17-1.64-9.44-2.4,9.31-8.42,9.31-8.42,15.34,6.93C517.81,772,516.94,770.82,515.68,770.45Zm8.92,61.41c-1.38-.89-2-3.15-2.89-4.66l12.94-1.13C531.64,829.73,529.13,834.5,524.6,831.86Zm25.5-21.3.14.11-.12,0a0,0,0,0,0,0,0l0,0-.84-.23c-6.64,3,6,8.75-1,11-4.14,1.39-7.28-.5-7.16-5.91.11-7,3.91-6.2,8.17-5.05.16-.07.2-.16.38-.23l.32-.39c-1.48-7.26-3-14.45,9.36-11.55l-9.36,11.55C550,810,550.05,810.3,550.1,810.56Zm7.07-45.89c.24-3-.89-6.92,3.77-7,1.38,0,3.64,1.63,3.88,2.76.77,3.77-2,5.91-4.9,7.16C556.91,769.07,558,765.67,557.17,764.67Zm12.56,67.06c4.53-1.26,3.27,3.14,2.39,4.28-1.52,2.13-2.52,6.54-6.66,4.4-1.64-.89-2.77-2.77-4-4.27C564.19,834.5,566.83,832.48,569.73,831.73Zm3.64,17.73a4,4,0,0,1-.71-.11c-3.44,1.64-8.21.07-11.22,2.75,1-4.53,3.6-5.53,6.44-5.84a19.63,19.63,0,0,1-1.29-2.34c-.13-.25,2.51-1.63,3.27-2,4-.13,7.54-.13,7,4.4C576.77,847.57,574.63,849.46,573.37,849.46Zm2.4-35.58c-4.78.76-7.42-1-6.92-6.28.25-2.9.63-5.17,4-5.41,6.29-.26-3.14,7.79,4.91,8.68C582.3,811.24,577.78,813.63,575.77,813.88Z" transform="translate(-148.77 -92.13)"/><path class="cls-1" d="M392.36,860.14c-4.89,4.44-2.95,10.7-5.86,15.86l67.18,6.58c-1.69-2.05-3.51-3.42-3.76-5-.74-5.52,5.41-2.88,7.68-5.65,1.5-1.89,2.89,1.63,2.26,2.88-1.22,2.56-3.29,4.68-5.7,7.79L467.75,884l6.31-28.53c-1.85-1.53-3.68-3.21-5.53-4.8a2.79,2.79,0,0,1-.92,1.53c1.27,1.41-.24,6.23,2.56,6,1.75,6-3.14,4-5.27,4-3.4.13-8.55,1.76-8.44-4.4.21-3.43,3.37-3.48,5.83-4.22-1.14-.17-2.3-.45-3.43-.69,1.71-2,3.42-4.09,5.14-6.14-.94-.84-1.9-1.59-2.83-2.46a460.17,460.17,0,0,0-54.82-43.39l-18.11,60.62A14.56,14.56,0,0,0,392.36,860.14Zm10.31-2.64c-1.63,6-2.77,10.56-4,15.09C397.13,867.43,392.36,861,402.67,857.5Z" transform="translate(-148.77 -92.13)"/><path class="cls-1" d="M384,875.75l1.17.12a19,19,0,0,0-.43-2.61Z" transform="translate(-148.77 -92.13)"/><path class="cls-1" d="M841.8,874.77,847,777.66c-.67-.14-1.38-.22-2.05-.37-1.27-.24-1.88-4.27-2.39-6.65-.12-.89,1.25-2.14,1.88-3.27a9.9,9.9,0,0,0,2.88,4.26l.57-10.61a602.76,602.76,0,0,1-60.54,65.57,7.81,7.81,0,0,1,.52,3.14,11.63,11.63,0,0,1-3.5-.5c-3.38,3.08-6.78,6.14-10.24,9.09A107.69,107.69,0,0,1,787,839.65,42.58,42.58,0,0,1,769.61,842c-7.44,6.18-15,12.13-22.75,17.64l8.87,23Zm-8.21-38.63c4.78.74,5.16,6.91,4.65,11.68-.25,3.39-.25,7.16-5.15,5.91-2.77-.76-5.41-2.52-5.53-6.54C841.39,849.2,823.41,834.62,833.59,836.14Z" transform="translate(-148.77 -92.13)"/><path class="cls-1" d="M687.55,848.07c-.21-.28-.43-.44-.66-.75h2.27c5.42-2.73,10.8-5.67,16.11-8.87l4.47-75.06,22,57.05c46.55-35.42,87.72-86,120-133.4l.86-16.2c-6.58.73-10.45-1.22-9.87-8.56,3.61,2.65,6.77,4.93,9.94,7.18l.66-12.47c-1.49.36-3.51-.63-5.32-.88a21.5,21.5,0,0,0,1.18-3.93l-73.13,2.48-1.39,58.93c1.81.83,3.4,2.22,3.45,6.19l-3.57-1.19-1,40.63c4.29-.08,8.47.4,11.81,4.31-5.67,5.15-12.32,3.15-18.73,3.15.13-2.52.24-7.29.37-7.29,1,0,2-.06,3-.11l-1-2.13c-2.07-.71-4.5-2.45-5.23-4.36-1.12-2.9.34-2.85,1.81-2.75L736,688.35a3,3,0,0,1-1.31.57c-6,1-4.91-5-6.67-7.91-2.47-3.7.61-3.43,2.74-3.58l-14.1-29.34-45.35,2.17c.64.56,1.2,1.06,1.9,1.64-5.2.62-9.34,1.59-10.85-1.21L634.51,652l-1.68,66.08c1,.17,2,.34,3,.49v1.88c-.93.14-2,.45-3.1.73l-.44,17.45c3.46-1.49,7-4.29,8,.36,1.18,5.65-3.66,6.07-8.14,7.27l-3,119.62c4.56-.5,9.13-1.13,13.74-2.06A183,183,0,0,0,687.55,848.07ZM817.13,714.7c-1.26,2.89-2.51,5.65-3.78,8.54-3.26-2.51-6.4-5-12.94-10.18C808.58,713.82,812.85,714.32,817.13,714.7Zm-16,29.47c2.14-1.26,4.65-3.39,5,.76.39,4.52-3.51,4.15-6.65,4.28s-4.77-1.14-5-4.28C796.13,739.4,799.14,745.31,801.16,744.17Zm-19.24-11.12c7.8,1.64,13.21,7.16,17.61,3.77-3,3.39-6.8,7.79-10.57,12.07C791.73,742.73,785,739.71,781.92,733.05Zm-46.25,12.76c1.88,1.76,3.77,3.51,5.65,5.28-2.26,2-4.27,4.27-6.78,5.78-1.14.76-3.77.38-3.53-.75C733,751.59,734.28,748.7,735.67,745.81ZM683,825.63c-4.27-.37-6.28-2.64-7.67-5.65-.13-.13,2.27-2.14,3.53-2.14,2.89-.25,6.78-.88,6.53,3.89C685.38,823.12,683.76,824.5,683,825.63Zm13.58-29c-6.41-2.88-8.3-7.16-4.9-15.46C692.92,787.41,699.59,789.81,696.57,796.59Zm17-41c.63,7.42-4.27,6.41-12.19,5.28a70.5,70.5,0,0,0,7.29-4.77C713.41,752.28,713.28,752.28,713.54,755.55Zm-10.81-35.07c2,1.26,5-4.78,6.67.75-.13,3.15-1.9,4.28-4.91,4.28s-7,.37-6.67-4.15C698.08,717.21,700.59,719.23,702.73,720.48Zm-5.15,12.38c-1.26,7.41-6.54,3.64-12.2,3.14,4-3.64,7.3-6.54,10.44-9.55C696.45,728.59,698,730.85,697.58,732.86Zm-16.09.57c-3,0-4.66-2-3.65-5,1.89-5.28,4.39,3,7.16-.24,2.14-2.64,4.41-1.77,3.9,4A46.29,46.29,0,0,1,681.49,733.43Zm3.27-40.17c1.5-2.26,4.39.88,4,3.77-1.89,12.7-10.56,6.79-17,6.29C678,701.94,681.62,698.3,684.76,693.26Zm-16.48,55.38c-4.39.37-8.66.75-12.95,1.13,3-3.65,5.41-8.43,10.07-5.79C666.77,744.74,667.28,747,668.28,748.64Zm-5.65-63.86c1.51,1.25,2.77,2.88.75,4.4-5.4,3.77-10.93,2.76-16.71-1.39C652.45,689.68,656.22,678.87,662.63,684.78Zm-21,85.92c4.9,1.12,9.8,2.26,18.09,4.15-8,5.15-14.58,12.06-17.59,10.81C636.23,783.14,641.39,776,641.64,770.7Z" transform="translate(-148.77 -92.13)"/></svg>